# xmcd
#
# Track frame offsets:
# 150
# 12781
# 24902
# 38867
# 51036
# 62172
# 74663
# 87251
# 100960
# 117992
# 129258
# 141135
# 152429
# 165601
# 176954
# 189755
# 202358
# 215106
# 226949
# 239693
# 251553
# 263541
# 286573
# 297326
# 311397
#
# Disc length: 4336 seconds
#
#
# Revision: 0
# Processed by: cddbd v1.5.2PL0 Copyright (c) Steve Scherf et al.
# Submitted via: Nero 7, 11, 10, 0 
#
DISCID=6610ee19
DTITLE=Elliott Chavers - Vintage
DYEAR=2001
DGENRE=Blues
TTITLE0=Yon He Go
TTITLE1=Hip Shakin'
TTITLE2=Better Your Ways
TTITLE3=Natural Twist
TTITLE4=Rock My Soul
TTITLE5=Butter Beans
TTITLE6=A Little Taste
TTITLE7=Thin Possum
TTITLE8=Party Poppin' (Part 1)
TTITLE9=The Blues Bottom
TTITLE10=The Blues Bottom (Take 2)
TTITLE11=Soul Village
TTITLE12=Ugly In Laws
TTITLE13=California Sunset
TTITLE14=Brother Blue
TTITLE15=Souling Black
TTITLE16=I Don't Know
TTITLE17=Last Love
TTITLE18=Mistreated
TTITLE19=Why
TTITLE20=You Don't Do It
TTITLE21=I Feel The Blues
TTITLE22=The Tongue Lover
TTITLE23=Juke Joint
TTITLE24=Bell Bottoms
EXTD=
EXTT0=Yon He Go
EXTT1=Hip Shakin'
EXTT2=Better Your Ways
EXTT3=Natural Twist
EXTT4=Rock My Soul
EXTT5=Butter Beans
EXTT6=A Little Taste
EXTT7=Thin Possum
EXTT8=Party Poppin' (Part 1)
EXTT9=The Blues Bottom
EXTT10=The Blues Bottom (Take 2)
EXTT11=Soul Village
EXTT12=Ugly In Laws
EXTT13=California Sunset
EXTT14=Brother Blue
EXTT15=Souling Black
EXTT16=I Don't Know
EXTT17=Last Love
EXTT18=Mistreated
EXTT19=Why
EXTT20=You Don't Do It
EXTT21=I Feel The Blues
EXTT22=The Tongue Lover
EXTT23=Juke Joint
EXTT24=Bell Bottoms
PLAYORDER=
